# xmcd CD database file
#
# Track frame offsets:
#	183
#	2325
#	20158
#	36120
#	45670
#	54968
#	65223
#	102945
#	117740
#	129150
#	139968
#	150125
#	163190
#	182115
#
# Disc length: 2607 seconds
#
# Revision: 0
# Processed by: cddbd v1.4PL0 Copyright (c) Steve Scherf et al.
# Submitted via: CDex 1.50beta9
#
DISCID=b90a2d0e
DTITLE=Fats Domino and the Fats Domino Jazz Band - Concert of Juan Les Pins - 13 07 1987
DYEAR=1987
DGENRE=Jazz
TTITLE0=Introduction
TTITLE1=Night Train
TTITLE2=I'm walking
TTITLE3=Boogie Woogie Baby
TTITLE4=I'm Ready
TTITLE5=Ain't a shame
TTITLE6=Jambalaya (on the bayou)
TTITLE7=Blueberry Hill
TTITLE8=When my Dreaboat come home
TTITLE9=I want walk you home
TTITLE10=The fat man
TTITLE11=I'm in the mood for love
TTITLE12=I'm in love again
TTITLE13=Walking to New Orleans
EXTD=YEAR: 1987
EXTT0=
EXTT1=
EXTT2=
EXTT3=
EXTT4=
EXTT5=
EXTT6=
EXTT7=
EXTT8=
EXTT9=
EXTT10=
EXTT11=
EXTT12=
EXTT13=
PLAYORDER=
